<?xml version="1.0" standalone="no"?>
<!DOCTYPE svg PUBLIC "-//W3C//DTD SVG 1.1//EN" "http://www.w3.org/Graphics/SVG/1.1/DTD/svg11.dtd" >
<svg xmlns="http://www.w3.org/2000/svg">
<metadata>Generated by IcoMoon</metadata>
<defs>
<font id="icomoon" horiz-adv-x="1024">
<font-face units-per-em="1024" ascent="960" descent="-64" />
<missing-glyph horiz-adv-x="1024" />
<glyph unicode="&#x20;" horiz-adv-x="512" d="" />
<glyph unicode="&#xe900;" glyph-name="search" d="M398.878 796.444c124.75 0 226.251-102.084 226.251-227.556 0-47.25-14.5-92.736-41.945-131.527l-22.277-31.46-31.278-22.375c-38.555-27.611-83.778-42.194-130.75-42.194-124.779 0-226.251 102.084-226.251 227.556s101.474 227.556 226.251 227.556zM398.878 910.222c-187.444 0-339.388-152.82-339.388-341.333s151.945-341.333 339.388-341.333c73.25 0 140.889 23.57 196.334 63.264l272.555-274.124c11.083-11.14 25.584-16.695 40.084-16.695s28.999 5.556 40.055 16.695c22.139 22.254 22.139 58.332 0 80.583l-272.555 274.124c39.472 55.778 62.889 123.819 62.889 197.486 0 188.514-151.945 341.333-339.362 341.333v0z" />
<glyph unicode="&#xe901;" glyph-name="sun" d="M545.374 622.611c-11.305 2.139-22.5 3.166-33.417 3.166-105.305 0-188.306-95.125-167.639-204.084 12.667-66.805 67.362-121.444 134.222-134.084 11.305-2.139 22.473-3.166 33.417-3.166 105.307 0 188.279 95.111 167.639 204.069-12.667 66.805-67.36 121.445-134.222 134.098zM555.876 418.875c-10.889-13.125-26.889-20.652-43.918-20.652-4 0-8.11 0.404-12.251 1.18-20.86 3.945-39.556 22.626-43.5 43.472-4.389 23.001 4.028 39.056 11.833 48.473 10.86 13.125 26.889 20.652 43.916 20.652 3.973 0 8.082-0.404 12.222-1.18 20.86-3.945 39.586-22.638 43.527-43.472 4.364-23.001-4.025-39.056-11.829-48.473zM967.737 398.222h-114.306c-31.333 0-56.72 25.374-56.72 56.681v0.416c0 31.305 25.387 56.681 56.72 56.681h114.306c31.333 0 56.722-25.374 56.722-56.681v-0.416c0-31.307-25.388-56.681-56.722-56.681zM512.208 170.667h-0.416c-31.333 0-56.722-25.374-56.722-56.681v-114.194c0-31.303 25.388-56.681 56.722-56.681h0.416c31.333 0 56.724 25.374 56.724 56.681v114.194c-0.002 31.307-25.39 56.681-56.724 56.681zM511.79 739.555h0.416c31.333 0 56.724 25.374 56.724 56.681v114.194c0 31.307-25.388 56.681-56.722 56.681h-0.416c-31.333 0-56.722-25.374-56.722-56.681v-114.194c-0.002-31.307 25.387-56.681 56.72-56.681zM227.319 454.903v0.416c0 31.305-25.417 56.681-56.75 56.681h-114.277c-31.333 0-56.75-25.374-56.75-56.681v-0.416c0-31.305 25.417-56.681 56.75-56.681h114.277c31.333 0 56.75 25.374 56.75 56.681zM831.292 698.361l63.586 63.527c20.944 20.917 20.944 54.834 0 75.749s-54.889 20.917-75.808 0l-63.609-63.527c-20.919-20.917-20.919-54.834 0-75.749 20.942-20.93 54.885-20.93 75.831 0zM204.958 837.639c-20.944 20.917-54.889 20.917-75.833 0-20.917-20.917-20.917-54.834 0-75.749l63.611-63.527c20.917-20.93 54.86-20.93 75.806 0 20.944 20.917 20.944 54.834 0 75.749l-63.584 63.527zM192.736 211.861l-63.611-63.527c-20.917-20.917-20.917-54.834 0-75.748 20.944-20.93 54.889-20.93 75.833 0l63.584 63.525c20.944 20.919 20.944 54.836 0 75.749-20.946 20.93-54.891 20.93-75.806 0zM831.292 211.861c-20.942 20.93-54.889 20.93-75.831 0-20.919-20.917-20.919-54.834 0-75.749l63.609-63.525c20.919-20.93 54.86-20.93 75.808 0 20.944 20.917 20.944 54.834 0 75.748l-63.586 63.527z" />
<glyph unicode="&#xe902;" glyph-name="moon" d="M412.235 781.959c-14.306-47.097-18.306-97.292-11.278-147.723 20.805-149.596 139.666-268.681 288.972-289.515 16.055-2.251 32.306-3.388 48.334-3.388 34.055 0 67.333 4.944 99.111 14.612-38.361-126-150.306-223.333-282.889-239.5-14.444-1.778-29.028-2.667-43.333-2.667-97.472 0-190.5 41.972-255.195 115.166-65.556 74.167-94.972 169.916-82.86 269.584 16.165 132.846 113.332 245.028 239.138 283.431zM511.124 910.222c-20.612 0-41.584-1.388-62.777-4.263-201.557-27.307-363.39-191.39-387.973-393.682-33.668-276.86 181.111-512.277 450.777-512.277 18.777 0 37.806 1.14 57.083 3.5 201.888 24.638 365.668 186.75 392.917 388.695 2.944 21.778 4.334 43.305 4.251 64.5-0.11 33.166-27.444 55.305-56.638 55.305-11.89 0-24.11-3.694-34.917-11.778-37.806-28.332-84.722-45.111-135.584-45.111-10.722 0-21.611 0.75-32.638 2.277-98.556 13.778-178.444 93.833-192.194 192.569-8.834 63.445 8.5 122.667 42.722 168.542 23.584 37.362 1.444 91.541-43.445 91.723-0.5 0-1.028 0-1.582 0v0z" />
<glyph unicode="&#xe903;" glyph-name="cog" d="M919.584 519.931l-75.388 12.555c-8.695 37.388-23.5 72.347-43.333 103.902l41.972 58.777c16 22.416 13.472 53.111-6 72.597l-12.194 12.181c-19.472 19.472-50.167 22.014-72.583 6l-58.777-41.986c-31.556 19.847-66.5 34.667-103.89 43.348l-12.583 75.374c-4.556 27.433-28.308 47.543-56.112 47.543h-17.388c-27.806 0-51.556-20.11-56.11-47.541l-12.583-75.374c-37.388-8.681-72.334-23.5-103.89-43.348l-58.777 41.986c-22.416 16.014-53.111 13.472-72.583-6l-12.194-12.181c-19.472-19.486-22-50.181-6-72.597l41.972-58.777c-19.833-31.556-34.638-66.514-43.333-103.902l-75.388-12.555c-27.42-4.585-47.531-28.322-47.531-56.126v-17.388c0-27.806 20.11-51.541 47.527-56.11l75.388-12.569c8.695-37.388 23.5-72.347 43.333-103.902l-41.972-58.777c-16-22.416-13.472-53.111 6-72.597l12.194-12.181c19.472-19.472 50.167-22.014 72.583-6l58.777 41.986c31.556-19.847 66.5-34.667 103.89-43.348l12.583-75.374c4.555-27.431 28.306-47.541 56.11-47.541h17.388c27.806 0 51.556 20.11 56.11 47.541l12.583 75.374c37.388 8.681 72.334 23.5 103.89 43.348l58.777-41.986c22.416-16.014 53.111-13.472 72.583 6l12.194 12.181c19.472 19.486 22 50.181 6 72.597l-41.972 58.777c19.833 31.556 34.638 66.514 43.333 103.902l75.388 12.569c27.417 4.569 47.527 28.306 47.527 56.11v17.388c0.005 27.804-20.105 51.541-47.522 56.124zM512 284.444c-94.251 0-170.667 76.416-170.667 170.667s76.416 170.667 170.667 170.667 170.667-76.416 170.667-170.667-76.416-170.667-170.667-170.667z" />
<glyph unicode="&#xe904;" glyph-name="heart" d="M711.111 739.555c78.416 0 142.222-76.555 142.222-170.667 0-179.445-217.223-324.999-341.333-386.86-124.251 61.943-341.333 207.472-341.333 386.86 0 94.112 63.806 170.667 142.222 170.667 36.583 0 76.612-25.028 107.111-66.944l46-50.389c22.722-31.221 69.278-31.221 92 0l46 50.389c30.5 41.916 70.528 66.944 107.111 66.944zM711.111 853.333c-80.473 0-152.167-49.278-199.111-113.778-46.944 64.5-118.638 113.778-199.111 113.778-141.388 0-256-127.362-256-284.444 0-325.333 455.111-512 455.111-512s455.111 186.667 455.111 512c0 157.083-114.612 284.444-256 284.444v0z" />
<glyph unicode="&#xe905;" glyph-name="playx" d="M284.444 687.555l393.388-232.444-393.388-232.444v464.889zM227.556 853.333c-31.417 0-56.889-25.472-56.889-56.889v-682.667c0-31.417 25.472-56.889 56.889-56.889l601.278 355.305c15.166 8.972 24.5 25.278 24.5 42.917s-9.333 33.945-24.5 42.917l-601.278 355.305z" />
<glyph unicode="&#xe906;" glyph-name="film" d="M967.111 853.333h-910.222c-31.417 0-56.889-25.472-56.889-56.889v-682.667c0-31.417 25.472-56.889 56.889-56.889h910.222c31.417 0 56.889 25.472 56.889 56.889v682.667c0 31.417-25.472 56.889-56.889 56.889zM113.778 739.555h113.778v-113.778h-113.778v113.778zM113.778 512h113.778v-113.778h-113.778v113.778zM113.778 170.667v113.778h113.778v-113.778h-113.778zM341.333 170.667v568.889h341.333v-568.889h-341.333zM910.222 170.667h-113.778v113.778h113.778v-113.778zM910.222 398.222h-113.778v113.778h113.778v-113.778zM910.222 625.778h-113.778v113.778h113.778v-113.778z" />
<glyph unicode="&#xe912;" glyph-name="message" horiz-adv-x="1045" d="M751.397-64c-9.286 0-18.483 2.978-25.93 9.107l-271.461 223.118h-356.216c-53.62 0-97.789 45.062-97.789 99.992v592.859c0 54.685 44.169 98.322 97.789 98.322h849.128c54.192 0 98.098-43.638 98.098-98.322v-592.861c0-54.93-43.906-99.99-98.098-99.99h-155.127v-191.419c0-15.787-8.903-30.156-23.178-36.899-5.554-2.622-11.302-3.907-17.216-3.907zM97.789 877.873c-8.618 0-15.646-7.115-15.646-16.796v-592.859c0-9.762 7.174-18.466 15.646-18.466h370.843c9.456 0 18.461-3.057 25.764-9.063l215.868-177.475v146.19c0 22.537 18.588 40.347 41.125 40.347h195.528c8.723 0 16.572 9.041 16.572 18.464v592.861c0 9.354-7.694 16.796-16.572 16.796h-849.128z" />
<glyph unicode="&#xe914;" glyph-name="Antu_kdenlive-show-audio" d="M512.072 820.413c-10.614 0-19.8-3.886-27.558-11.636l-203.939-203.939h-160.46c-10.622 0-19.808-3.886-27.565-11.636-7.758-7.758-11.636-16.951-11.636-27.565v-235.135c0-10.614 3.879-19.808 11.636-27.558 7.765-7.758 16.951-11.644 27.565-11.644h160.452l203.939-203.939c7.758-7.75 16.944-11.636 27.558-11.636 10.622 0 19.808 3.886 27.565 11.636s11.636 16.944 11.636 27.558v666.315c0 10.614-3.879 19.808-11.629 27.565-7.765 7.75-16.944 11.636-27.565 11.636zM760.437 361.374c17.357 26.738 26.032 55.619 26.032 86.65s-8.675 60.047-26.032 86.995c-17.364 26.949-40.314 45.929-68.902 56.957-4.082 2.037-9.193 3.059-15.312 3.059-10.614 0-19.808-3.781-27.558-11.328-7.75-7.592-11.644-16.846-11.644-27.866 0-8.577 2.451-15.823 7.359-21.747 4.901-5.923 10.817-11.028 17.763-15.312 6.931-4.285 13.877-8.983 20.822-14.087s12.862-12.351 17.763-21.739c4.886-9.396 7.344-21.033 7.344-34.917s-2.451-25.521-7.344-34.917c-4.901-9.396-10.817-16.635-17.763-21.747-6.946-5.104-13.892-9.802-20.822-14.087-6.946-4.277-12.862-9.389-17.763-15.305-4.901-5.931-7.359-13.17-7.359-21.747 0-11.028 3.894-20.311 11.644-27.866 7.75-7.517 16.944-11.336 27.558-11.336 6.119 0 11.231 1.022 15.312 3.052 28.587 11.449 51.545 30.542 68.902 57.288zM891.159 275.003c34.706 52.845 52.063 110.539 52.063 173.043 0 62.475-17.357 120.138-52.063 173.043-34.706 52.845-80.651 91.348-137.803 115.44-5.3 2.037-10.614 3.059-15.914 3.059-10.614 0-19.808-3.879-27.573-11.636-7.75-7.758-11.629-16.944-11.629-27.558 0-15.929 7.961-27.971 23.889-36.142 22.859-11.839 38.375-20.822 46.538-26.941 30.219-22.055 53.792-49.711 70.736-82.989s25.415-68.699 25.415-106.292c0-37.563-8.472-72.983-25.415-106.292-16.944-33.286-40.525-60.934-70.736-82.989-8.164-6.126-23.679-15.109-46.538-26.949-15.929-8.171-23.889-20.213-23.889-36.142 0-10.614 3.879-19.808 11.629-27.558 7.765-7.765 17.146-11.644 28.174-11.644 4.901 0 10.013 1.030 15.312 3.059 57.152 24.1 103.097 62.58 137.803 115.455z" />
<glyph unicode="&#xe915;" glyph-name="rated-3" horiz-adv-x="1616" d="M1245.612 444.179c-0.519 0.013-1.13 0.020-1.742 0.020-14.92 0-28.841-4.276-40.605-11.669l0.318 0.186c-10.791-7.021-19.726-15.955-26.536-26.402l-0.21-0.344v-38.209c0-68.776 22.925-103.164 72.597-103.164 20.643 0.094 38.811 10.599 49.536 26.532l0.136 0.214c11.987 17.284 19.15 38.703 19.15 61.795 0 1.111-0.017 2.219-0.050 3.322l0.004-0.162c0.029 0.941 0.046 2.049 0.046 3.16 0 23.092-7.163 44.512-19.388 62.158l0.237-0.362c-12.778 14.118-31.17 22.95-51.626 22.95-0.656 0-1.311-0.009-1.963-0.027l0.096 0.002zM1501.612 960h-1386.985c-63.307 0-114.627-51.32-114.627-114.627v0-794.746c0-63.307 51.32-114.627 114.627-114.627v0h1386.985c63.307 0 114.627 51.32 114.627 114.627v0 794.746c0 63.307-51.32 114.627-114.627 114.627v0zM561.672 375.403h-126.090v-145.194h-118.448v145.194h-129.91v106.985h126.090v141.373h118.448v-141.373h126.090v-106.985zM890.269 176.716h-126.090v401.194l-122.269-34.388v95.522l236.896 84.060h11.463zM1417.552 260.776c-16.033-29.28-39.496-52.743-67.893-68.332l-0.883-0.444c-27.52-14.448-60.126-22.927-94.712-22.927-0.285 0-0.57 0.001-0.854 0.002h0.044c-1.651-0.051-3.592-0.080-5.54-0.080-36.027 0-69.725 9.972-98.483 27.307l0.859-0.48c-30.647 18.779-55.275 44.631-72.074 75.372l-0.523 1.045c-16.18 32.331-25.969 70.336-26.742 110.549l-0.004 0.257v49.672c-0.066 2.371-0.104 5.161-0.104 7.96 0 51.548 12.76 100.116 35.294 142.718l-0.802-1.663c22.412 45.085 58.080 80.752 101.859 102.575l1.305 0.589c43.192 23.225 94.361 37.254 148.719 38.205l0.296 0.004h19.104v-99.343h-3.821c-2.028 0.079-4.409 0.125-6.8 0.125-40.45 0-77.879-12.933-108.378-34.89l0.551 0.377c-30.278-22.613-51.301-56.173-57.211-94.711l-0.102-0.811c26.965 26.022 63.719 42.055 104.219 42.055 0.973 0 1.943-0.009 2.912-0.028l-0.145 0.002c2.148 0.124 4.66 0.195 7.189 0.195 41.819 0 79.116-19.361 103.416-49.608l0.201-0.259c26.303-35.228 42.114-79.629 42.114-127.722 0-2.113-0.031-4.219-0.091-6.317l0.007 0.308c0.593-4.715 0.931-10.172 0.931-15.707 0-28.441-8.93-54.797-24.138-76.417l0.282 0.422z" />
<glyph unicode="&#xe916;" glyph-name="rated-4" horiz-adv-x="1616" d="M1501.612 960h-1386.985c-63.307 0-114.627-51.32-114.627-114.627v0-794.746c0-63.307 51.32-114.627 114.627-114.627v0h1386.985c63.307 0 114.627 51.32 114.627 114.627v0 794.746c0 63.307-51.32 114.627-114.627 114.627v0zM561.672 379.224h-126.090v-145.194h-118.448v145.194h-129.91v106.985h126.090v141.373h118.448v-141.373h126.090v-106.985zM890.269 176.716h-126.090v401.194l-122.269-34.388v95.522l236.896 84.060h11.463zM1383.164 211.104c-35.678-26.362-80.533-42.194-129.086-42.194-2.978 0-5.941 0.060-8.89 0.178l0.423-0.013c-2.633-0.108-5.724-0.17-8.828-0.17-49.69 0-95.688 15.809-133.238 42.671l0.694-0.472c-30.62 24.996-50.014 62.741-50.014 105.016 0 3.382 0.124 6.735 0.368 10.055l-0.026-0.444c-0.021 0.867-0.033 1.889-0.033 2.914 0 27.493 8.591 52.98 23.235 73.922l-0.277-0.417c16.24 23.372 38.24 41.69 63.98 53.107l0.975 0.386c-22.976 10.55-41.391 27.733-53.194 49.082l-0.299 0.59c-11.588 19.741-18.62 43.387-19.102 68.637l-0.002 0.139c-0.124 2.148-0.195 4.66-0.195 7.189 0 41.819 19.361 79.116 49.608 103.416l0.259 0.201c33.952 26.273 77.134 42.115 124.017 42.115 2.073 0 4.138-0.031 6.195-0.092l-0.302 0.007c2.468 0.111 5.362 0.174 8.271 0.174 46.121 0 88.53-15.898 122.043-42.514l-0.404 0.31c30.51-26.557 49.685-65.458 49.685-108.837 0-0.692-0.005-1.383-0.015-2.073l0.001 0.104c0-0.126 0.001-0.275 0.001-0.425 0-25.265-7.108-48.87-19.432-68.924l0.327 0.572c-13.076-21.163-31.203-38.065-52.748-49.318l-0.745-0.354c49.462-23.452 83.233-72.64 84.058-129.802l0.001-0.108c-5.048-45.53-26.053-85.39-57.21-114.531l-0.104-0.096zM1245.612 505.313c0.114-0.001 0.248-0.002 0.383-0.002 15.457 0 29.171 7.462 37.737 18.981l0.089 0.125c7.263 11.938 11.563 26.374 11.563 41.814 0 1.42-0.036 2.832-0.108 4.234l0.008-0.197c0.064 1.206 0.1 2.617 0.1 4.037 0 15.44-4.3 29.876-11.767 42.175l0.204-0.361c-9.921 9.461-23.385 15.284-38.209 15.284s-28.288-5.822-38.231-15.304l0.022 0.021c-7.263-11.938-11.563-26.374-11.563-41.814 0-1.42 0.036-2.832 0.108-4.234l-0.008 0.197c-0.147-1.588-0.232-3.434-0.232-5.299 0-15.611 5.888-29.846 15.564-40.607l-0.049 0.056c3.821-15.284 15.284-19.104 34.388-19.104zM1245.612 405.97c-0.142 0.001-0.31 0.002-0.478 0.002-17.776 0-33.845-7.313-45.361-19.094l-0.012-0.012c-11.894-13.409-19.159-31.16-19.159-50.607 0-1.015 0.020-2.025 0.059-3.030l-0.004 0.145c-0.047-0.93-0.073-2.019-0.073-3.114 0-18.162 7.325-34.614 19.182-46.561l-0.004 0.004c11.704-11.8 27.924-19.104 45.851-19.104s34.147 7.305 45.847 19.1l0.004 0.004c9.661 11.94 15.509 27.311 15.509 44.047 0 1.98-0.082 3.94-0.242 5.878l0.017-0.254c0.001 0.162 0.002 0.354 0.002 0.546 0 20.192-7.218 38.698-19.214 53.079l0.108-0.133c-8.952 11.729-22.94 19.22-38.677 19.22-1.18 0-2.35-0.042-3.508-0.125l0.156 0.009z" />
<glyph unicode="&#xe917;" glyph-name="rated-1" horiz-adv-x="1616" d="M1314.388 619.94h-87.881v-156.657h84.060c1.658-0.124 3.591-0.194 5.541-0.194 19.845 0 37.982 7.309 51.868 19.381l-0.096-0.082c11.894 13.409 19.159 31.16 19.159 50.607 0 1.015-0.020 2.025-0.059 3.030l0.004-0.145c0.034 0.966 0.054 2.101 0.054 3.241 0 21.81-7.194 41.94-19.339 58.146l0.181-0.252c-11.856 14.138-29.528 23.063-49.285 23.063-1.48 0-2.949-0.050-4.405-0.149l0.197 0.011zM298.030 379.224h114.627l-57.313 187.224-57.313-187.224zM1501.612 960h-1386.985c-62.629-1.657-112.97-51.998-114.624-114.471l-0.003-0.156v-794.746c1.657-62.629 51.998-112.97 114.471-114.624l0.156-0.003h1386.985c63.307 0 114.627 51.32 114.627 114.627v0 794.746c0 63.307-51.32 114.627-114.627 114.627v0zM477.612 176.716l-30.567 103.164h-179.582l-30.567-103.164h-141.373l198.687 542.567h122.269l202.507-542.567zM1039.284 619.94h-164.299v-443.224h-129.91v443.224h-160.478v99.343h454.687zM1463.403 409.791c-39.855-28.879-89.73-46.194-143.649-46.194-4.576 0-9.122 0.125-13.636 0.371l0.629-0.027h-84.060v-183.403h-129.91v538.746h217.791c1.103 0.017 2.404 0.026 3.708 0.026 38.798 0 75.621-8.454 108.728-23.621l-1.63 0.669c30.989-13.532 55.961-36.040 72.204-64.216l0.393-0.74c16.156-27.404 25.993-60.238 26.743-95.307l0.004-0.215c0.093-1.989 0.145-4.321 0.145-6.666 0-48.195-22.308-91.18-57.161-119.193l-0.297-0.231z" />
<glyph unicode="&#xe918;" glyph-name="rated-2" horiz-adv-x="1616" d="M1501.612 960h-1386.985c-63.307 0-114.627-51.32-114.627-114.627v0-794.746c0-63.307 51.32-114.627 114.627-114.627v0h1386.985c63.307 0 114.627 51.32 114.627 114.627v0 794.746c-1.657 62.629-51.998 112.97-114.471 114.624l-0.156 0.003zM561.672 375.403h-126.090v-145.194h-118.448v145.194h-129.91v106.985h126.090v141.373h118.448v-141.373h126.090v-106.985zM890.269 176.716h-126.090v401.194l-122.269-34.388v95.522l236.896 84.060h11.463zM1379.343 211.104c-36.546-26.524-82.299-42.429-131.766-42.429-4.724 0-9.414 0.145-14.067 0.431l0.638-0.031c-35.839 0.473-69.914 7.442-101.291 19.779l1.947-0.675c-29.511 10.559-53.408 30.743-68.447 56.699l-0.329 0.615c-14.39 21.778-22.957 48.502-22.957 77.228 0 1.059 0.012 2.115 0.035 3.168l-0.003-0.157h126.090c0.718-16.592 7.902-31.378 19.078-42.005l0.026-0.025c12.877-11.845 30.132-19.107 49.083-19.107 0.207 0 0.414 0.001 0.62 0.003h-0.032c0.162-0.001 0.354-0.002 0.546-0.002 20.192 0 38.698 7.218 53.079 19.214l-0.133-0.108c11.793 11.528 19.106 27.596 19.106 45.372 0 0.168-0.001 0.336-0.002 0.504v-0.026c0.124 1.658 0.194 3.591 0.194 5.541 0 19.845-7.309 37.982-19.381 51.868l0.082-0.096c-13.731 9.792-30.853 15.655-49.343 15.655-2.806 0-5.581-0.135-8.318-0.399l0.348 0.027h-61.134v95.522h61.134c2.597-0.393 5.593-0.618 8.642-0.618 33.553 0 60.752 27.2 60.752 60.752 0 3.049-0.225 6.045-0.658 8.973l0.040-0.331c0.291 1.981 0.457 4.267 0.457 6.592 0 14.039-6.057 26.663-15.7 35.402l-0.040 0.036c-10.705 9.627-24.941 15.515-40.552 15.515-1.866 0-3.711-0.084-5.534-0.249l0.235 0.017c-0.89 0.049-1.932 0.078-2.981 0.078-15.105 0-28.845-5.843-39.083-15.392l0.034 0.031c-10.283-8.387-17.306-20.432-19.077-34.124l-0.028-0.264h-126.090c0 0.079 0 0.174 0 0.268 0 28.364 8.561 54.728 23.24 76.649l-0.315-0.499c17.125 22.489 38.869 40.565 63.903 53.019l1.052 0.474c24.264 12.172 52.872 19.299 83.144 19.299 3.010 0 6.003-0.070 8.979-0.21l-0.421 0.016c3.255 0.17 7.067 0.267 10.902 0.267 49.023 0 94.34-15.863 131.1-42.735l-0.629 0.438c32.74-25.47 53.601-64.874 53.601-109.15 0-1.926-0.039-3.843-0.118-5.75l0.009 0.273c-0.039-24.685-8.677-47.345-23.079-65.151l0.153 0.196c-15.872-21.217-36.413-38.084-60.161-49.26l-0.973-0.412c27.088-10.3 50.092-25.933 68.685-45.753l0.091-0.098c14.423-20.949 23.037-46.87 23.037-74.803 0-1.912-0.040-3.814-0.12-5.706l0.009 0.27c-3.261-45.961-24.707-86.355-57.107-114.451l-0.207-0.176z" />
<glyph unicode="&#xe919;" glyph-name="rated-5" horiz-adv-x="1616" d="M1501.612 960h-1386.985c-63.307 0-114.627-51.32-114.627-114.627v0-794.746c0-63.307 51.32-114.627 114.627-114.627v0h1386.985c63.307 0 114.627 51.32 114.627 114.627v0 794.746c0 63.307-51.32 114.627-114.627 114.627v0zM737.433 310.448c13.372-23.362 38.15-38.849 66.545-38.849 3.481 0 6.907 0.233 10.265 0.683l-0.392-0.043c2.163-0.179 4.683-0.28 7.226-0.28 23.637 0 45.219 8.796 61.652 23.293l-0.101-0.088c15.661 18.55 25.573 42.403 26.738 68.531l0.009 0.245h129.91c0.007-0.578 0.011-1.26 0.011-1.943 0-36.453-11.446-70.233-30.939-97.941l0.361 0.541c-20.28-29.454-47.353-52.852-79.033-68.248l-1.205-0.529c-32.674-14.505-70.789-22.951-110.877-22.951-1.318 0-2.635 0.009-3.949 0.027l0.199-0.002c-3.293-0.182-7.146-0.285-11.024-0.285-62.096 0-117.992 26.546-156.958 68.909l-0.138 0.152c-38.637 47.804-62.025 109.326-62.025 176.31 0 7.876 0.323 15.676 0.957 23.388l-0.067-1.012v26.746c-0.098 3.021-0.154 6.574-0.154 10.139 0 47.423 9.896 92.535 27.737 133.383l-0.836-2.149c17.599 38.358 45.145 69.588 79.374 91.192l0.865 0.51c33.27 21.596 73.958 34.437 117.646 34.437 1.625 0 3.247-0.018 4.864-0.053l-0.241 0.004c2.135 0.067 4.647 0.104 7.167 0.104 58.193 0 111.668-20.201 153.795-53.973l-0.485 0.376c39.97-36.264 65.836-87.448 68.756-144.69l0.021-0.504h-129.91c0.379 3.018 0.595 6.51 0.595 10.053 0 24.693-10.504 46.932-27.287 62.494l-0.055 0.050c-17.657 14.436-40.455 23.183-65.296 23.183-2.569 0-5.116-0.094-7.639-0.277l0.338 0.020c-1.878 0.164-4.062 0.258-6.269 0.258-28.241 0-52.903-15.319-66.132-38.101l-0.196-0.366c-14.763-30.259-23.395-65.837-23.395-103.431 0-5.283 0.17-10.527 0.506-15.725l-0.037 0.708v-38.209c-0.348-5.459-0.546-11.837-0.546-18.261 0-38.746 7.209-75.808 20.359-109.918l-0.708 2.090z" />
<glyph unicode="&#xe91a;" glyph-name="imdb" horiz-adv-x="2549" d="M261.565 959.205v-1005.714h-261.565v1005.714zM1172.671 959.205v-1005.714h-228.174v678.957l-90.634-678.957h-159.006l-100.174 662.261v-663.056h-228.174v1006.509h337.888q11.13-90.634 31.006-213.863l37.366-256 60.422 469.863zM1277.615 959.205h196.373c13.584 0.543 29.53 0.853 45.548 0.853 74.369 0 147.179-6.674 217.864-19.456l-7.412 1.112c39.189-9.446 72.752-29.581 98.479-57.129l0.105-0.114c21.702-23.929 37.153-53.908 43.544-87.111l0.182-1.137c5.857-47.046 9.199-101.496 9.199-156.726 0-12.264-0.165-24.49-0.492-36.675l0.038 1.799v-352.199c0.441-10.044 0.692-21.824 0.692-33.663 0-52.182-4.881-103.225-14.211-152.695l0.798 5.091c-7.268-28.87-22.978-53.357-44.32-71.387l-0.202-0.166c-22.2-17.414-49.041-29.971-78.347-35.592l-1.156-0.185c-36.659-6.734-78.846-10.585-121.931-10.585-6.607 0-13.193 0.091-19.756 0.27l0.967-0.021h-325.963zM1537.59 787.478v-661.466q56.447 0 69.963 23.056c8.832 28.45 13.92 61.16 13.92 95.057 0 9.917-0.435 19.733-1.288 29.429l0.089-1.256v390.36c1.161 13.098 1.822 28.335 1.822 43.727s-0.662 30.63-1.958 45.686l0.136-1.959c-3.020 10.581-9.855 19.227-18.887 24.541l-0.194 0.105c-16.43 8.157-35.781 12.931-56.246 12.931-2.588 0-5.158-0.076-7.708-0.227l0.352 0.017zM2226.087 959.205v-238.509c18.745 22.485 41.789 40.698 67.954 53.525l1.214 0.537c23.338 10.885 50.648 17.311 79.44 17.49h0.064c1.816 0.052 3.953 0.082 6.097 0.082 30.153 0 58.935-5.869 85.266-16.528l-1.525 0.545c23.842-9.496 43.552-25.111 57.774-44.931l0.263-0.386c11.703-16.149 20.088-35.471 23.733-56.421l0.118-0.822c1.054-17.816 1.654-38.652 1.654-59.627s-0.6-41.81-1.785-62.488l0.131 2.861v-371.28c0.207-5.673 0.325-12.336 0.325-19.028 0-41.132-4.462-81.223-12.929-119.813l0.678 3.685c-9.214-33.131-29.248-60.651-55.98-79.196l-0.467-0.307c-28.336-20.417-63.75-32.654-102.022-32.654-1.587 0-3.168 0.021-4.745 0.063l0.233-0.005c-29.017 0.211-56.345 7.237-80.527 19.554l1.024-0.473c-26.168 15.098-48.115 34.51-65.596 57.501l-0.391 0.536-15.901-62.012h-238.509v1008.099zM2305.59 543.404c0.326 4.955 0.512 10.743 0.512 16.574 0 23.773-3.087 46.826-8.882 68.778l0.42-1.874c-4.567 11.793-15.819 20.004-28.988 20.004-0.99 0-1.97-0.046-2.936-0.137l0.124 0.009c-0.994 0.122-2.144 0.192-3.311 0.192-11.556 0-21.513-6.849-26.032-16.709l-0.073-0.178c-6.6-23.973-10.392-51.5-10.392-79.912 0-2.092 0.021-4.18 0.062-6.263l-0.005 0.311v-355.379c-0.314-4.976-0.493-10.792-0.493-16.649 0-24.299 3.079-47.88 8.87-70.371l-0.426 1.952c4.707-10.936 15.39-18.453 27.829-18.453 1.119 0 2.224 0.061 3.311 0.179l-0.134-0.012c1.018-0.125 2.197-0.196 3.393-0.196 12.607 0 23.361 7.93 27.547 19.074l0.067 0.203c6.156 24.64 9.688 52.926 9.688 82.037 0 3.582-0.053 7.151-0.16 10.707l0.012-0.521z" />
<glyph unicode="&#xe91b;" horiz-adv-x="1615" d="M1500.987 959.778h-1386.434c-61.095 0-114.552-49.645-114.552-114.589v-794.414c0-61.033 53.458-114.552 114.552-114.552h1386.422c64.907 0 114.491 53.519 114.491 114.552v794.414c0.012 64.944-53.384 114.589-114.478 114.589zM750.518 179.465h-122.769v227.797h-202.703v-227.797h-123.559v544.361h123.559v-209.143h202.715v209.143h122.769v-544.361zM1249.12 244.101c-57.344-47.597-144.544-70.286-251.139-70.286-63.858 0-109.025 4.071-139.745 8.081v534.639c45.179 7.291 104.164 11.338 166.369 11.338 103.375 0 170.391-18.58 222.862-58.134 56.554-42.021 92.135-109.062 92.135-205.133 0.012-104.238-38.011-176.042-90.482-220.505z" />
<glyph unicode="&#xe91c;" horiz-adv-x="1615" d="M1037.509 633.381c-27.426 0-45.179-2.393-55.703-4.836v-356.167c10.524-2.418 27.426-2.418 42.811-2.418 111.468-0.79 184.135 60.552 184.135 190.563 0.79 113.109-65.437 172.859-171.242 172.859z" />
<glyph unicode="&#xe91d;" horiz-adv-x="1615" d="M189.169 861.079h1176.157v-764.916h-1176.157v764.916z" />
<glyph unicode="&#xe91e;" horiz-adv-x="1615" d="M359.436 302.678c32.583-17.124 84.733-34.236 137.709-34.236 57.036 0 87.188 23.626 87.188 60.317 0 33.41-26.081 53.779-92.061 76.615-91.272 32.571-151.589 83.092-151.589 163.778 0 93.702 79.058 164.593 207.786 164.593 62.772 0 107.594-12.202 140.165-27.697l-27.697-99.402c-21.196 10.573-61.119 26.081-114.096 26.081-53.779 0-79.86-25.292-79.86-52.989 0-35.038 30.152-50.534 101.857-78.231 96.972-35.865 141.805-86.398 141.805-164.63 0-92.061-70.076-170.292-220.826-170.292-62.735 0-124.681 17.112-155.66 34.187l25.279 101.907z" />
<glyph unicode="&#xe91f;" horiz-adv-x="1615" d="M795.648 716.646c45.648 8.118 105.139 12.214 167.048 12.214 105.139 0 173.574-17.124 225.736-57.036 57.060-42.403 92.888-110.839 92.888-208.612 0-105.127-38.283-177.658-90.433-222.479-57.862-48.066-146.679-70.89-254.26-70.89-64.364 0-110.814 4.071-140.967 8.155v538.649zM919.527 269.269c10.585-2.455 28.499-2.455 43.168-2.455 113.306-0.814 187.454 61.119 187.454 192.327 0 118.142-66.819 174.388-174.413 174.388-26.871 0-45.611-2.455-56.197-4.886v-359.375z" />
<glyph unicode="&#xe920;" glyph-name="hd" horiz-adv-x="1615" d="M1500.987 960h-1386.434c-61.095 0-114.552-49.645-114.552-114.589v-794.414c0-61.033 53.458-114.552 114.552-114.552h1386.422c64.907 0 114.491 53.519 114.491 114.552v794.414c0.012 64.944-53.384 114.589-114.478 114.589zM750.518 179.687h-122.769v227.797h-202.703v-227.797h-123.559v544.361h123.559v-209.155h202.715v209.155h122.769v-544.361zM1249.12 244.323c-57.344-47.61-144.544-70.298-251.139-70.298-63.858 0-109.025 4.084-139.745 8.093v534.639c45.179 7.291 104.164 11.338 166.369 11.338 103.375 0 170.391-18.58 222.862-58.134 56.554-42.021 92.135-109.062 92.135-205.133 0.012-104.238-38.011-176.042-90.482-220.505zM1037.509 633.591c-27.426 0-45.179-2.393-55.703-4.836v-356.167c10.524-2.43 27.426-2.43 42.811-2.43 111.468-0.79 184.135 60.564 184.135 190.575 0.79 113.121-65.437 172.859-171.242 172.859z" />
<glyph unicode="&#xea1c;" glyph-name="play" d="M192 832l640-384-640-384z" />
</font>
</defs>
</svg>
